<svg xmlns="http://www.w3.org/2000/svg" viewBox="0 0 64 40" width="64" height="40">
  <defs>
    <linearGradient id="b" x1="0" y1="0" x2="1" y2="1">
      <stop offset="0%" stop-color="#fde68a"/>
      <stop offset="100%" stop-color="#f59e0b"/>
    </linearGradient>
  </defs>
  <g fill="none" stroke="#000" stroke-opacity="0.08">
    <ellipse cx="22" cy="32" rx="14" ry="3"/>
  </g>
  <g>
    <path d="M18 26c-2-3 0-6 3-7 2-6 9-8 14-5 3 2 4 5 3 8 3 2 5 3 9 2-1 4-6 6-10 6H22c-2 0-3-1-4-4z" fill="url(#b)"/>
    <circle cx="31" cy="18" r="2.2" fill="#111827" opacity="0.9"/>
    <path d="M38 20c2-1 5-1 7 0-1 2-4 3-7 0z" fill="#ef4444"/>
    <path d="M20 23c-2 0-5-1-7-3 2-1 4-2 6-1 1 1 1 3 1 4z" fill="#60a5fa" opacity="0.9"/>
  </g>
</svg>

