<svg xmlns="http://www.w3.org/2000/svg" viewBox="0 0 1200 630" width="1200" height="630">
  <defs>
    <linearGradient id="g" x1="0" y1="0" x2="1" y2="1">
      <stop offset="0%" stop-color="#0ea5e9"/>
      <stop offset="50%" stop-color="#6366f1"/>
      <stop offset="100%" stop-color="#a855f7"/>
    </linearGradient>
    <filter id="shadow" x="-20%" y="-20%" width="140%" height="140%">
      <feDropShadow dx="0" dy="10" stdDeviation="20" flood-color="#000" flood-opacity="0.35"/>
    </filter>
  </defs>
  <rect width="1200" height="630" rx="28" fill="url(#g)"/>
  <g filter="url(#shadow)">
    <circle cx="260" cy="160" r="120" fill="rgba(255,255,255,.14)"/>
    <circle cx="960" cy="520" r="160" fill="rgba(255,255,255,.10)"/>
  </g>
  <g transform="translate(200,130)" fill="none" stroke="#fff" stroke-width="10" opacity=".9">
    <path d="M160,260c120,-40 160,-90 120,-130c-30,-30 -70,-20 -80,-10"/>
    <path d="M150,310c100,0 180,-40 180,-90c0,-40 -40,-60 -70,-70"/>
    <path d="M190,360c80,10 170,-10 200,-60"/>
  </g>
  <text x="200" y="460" font-family="'Poppins', 'Inter', sans-serif" font-size="120" font-weight="800" fill="#fff" opacity=".95">JAVA</text>
  <text x="200" y="520" font-family="'Poppins', 'Inter', sans-serif" font-size="36" fill="rgba(255,255,255,.9)">Networking • JVM • Socket • HTTP</text>
</svg>

